<svg version="1.2" xmlns="http://www.w3.org/2000/svg" viewBox="0 0 1425 1404" width="1425" height="1404">
	<title>vecteezy_planet-map-globe-icons-vector-earth-symbols-world-globus_6605270-ai</title>
	<style>
		.s0 { fill: #231f20 } 
	</style>
	<g id="Layer 1">
		<g id="&lt;Group&gt;">
			<g id="&lt;Group&gt;">
				<path id="&lt;Compound Path&gt;" fill-rule="evenodd" class="s0" d="m711.8 8.3c382.6 0 692.8 310.2 692.8 692.8 0 382.5-310.2 692.6-692.8 692.6-382.5 0-692.7-310.1-692.7-692.6 0-382.6 310.2-692.8 692.7-692.8zm-598.6 458.7c0 4.7-0.4 9.6-0.4 14.4 57.7 22.2 6.4 29.9 35.4 78.6 13.2 22.2 9.8 30.8 39.8 32.2 1.7-22.9-4-24.8-15.2-41.3-7.4-10.8-15.8-36.8-9.6-49.1 24.6 0.2 8.2 26.4 23.5 47.7 6 8.5 28 37.1 27.4 44.7-1.5 17.2-15.2 11.8 12.6 45.6 10.2 12.2 38.5 12.8 54.7 18.8 16.1-4.8-6.3-9.8 24.5-5.6l2.6 10.1c4.3 10.5 15.8 10.2 27.6 13.1 31.3 7.8 35.4 37.7 57.7 48.1 8.2 3.8 37.4 4.2 47.9 4.4l4.5 42.9c-10.8 4.8-25.1 15.7-34.4 21.9-0.5 18.2-0.6 30-3.9 46.4-6 30.9 43.3 46.2 50.2 95.5 28.2 6.8 43.2 18.9 59.7 34.5l-0.2 105.5c4.8 12.4 3.3 1.1 13.4 12.2-9.4 33.9-13.3 44.3 5.6 67.1 19.1 23.1-6.2 46.4 9.6 74.3 20.5 36.2 51.1 89 102 73.9 5-18.6-15.2-23.3-24.4-35.2l8.5-40.4c-23.5-1.4-19.9 2.9-28.7-12.4 7.3-13.4 12-7 16.1-24.8-6.2-7-11.8-4.7-16.2-12.4 5.7-13.9 3.5-0.2 51.9-22.5 21-9.7 20.3-23.4 34.2-40.2 65.8-79.9 1.9-44.7 35.7-103.9 28.3-0.1 30.1 7.6 50.6-8.4 29.5-23.2 5.7-70.6 29.7-100.6 15.3-19 16.7-15.5 23.6-43.8-9.2-8.5-17.5-5-26.1-13.5-9.4-9.3-6.6-18.4-19.7-24.9-17.9-0.1-40.1 2.4-56-2-14-3.9-28.2-11.6-42.7-15.9-2-28.8-1.8-40.9-19.1-59.7l-41.1-0.9c-4.2-9.4-9.3-17.9-15.8-27.8-10.1-15.4-10.2-9.4-24.2-18.8l-6.8 11.6-36.1 0.4c-17.9-23.8-27.1-24.5-57.4-26.8-5.1 9.7-23.2 31.2-32.1 37.3l-49.4-8.8-3.7-58.3-36.9-6.7c7.3-19.6 18.8-24.6 8.9-43.6-41.6 17.3-26.5 35-79.1 27.3-9.7-15.2-14.3-25.4-6.2-46.5 23.9-62.8 72-55.2 134.8-54.6l0.4 24.4 27.1 11.5-2-38.6c19-17.9 25.3-23 49.8-39.6 24.7-16.8-6.4-6.2 37.7-52.3 18.1-18.9 42.1-25.2 53.3-36.4l7.5-11c0.4-0.5 1-1.2 1.5-1.7 12.9-15.2 20.3-23.9 38.6-11.5l8.6-11.8c-6.8-3.8-15.1-4.3-21.1-9.4l0.1-10.1c19.7-9.4 22.5-4.6 34.3 9.5 25.7-1.2 19.8-2.8 28.9-7.8 10.3-5.5-8.6-4.3 11.5-3.7 2 29.4-9.6 2-7.9 27.6 7.7 7.6 33.6 14.1 44 14.3 6.6-32.3-13.8-11.5-17.3-30.4-4.2-22 14.9 3 13.3-36.6l-17.2-12c-11.2-8.8-7.7-28-8.3-41.9-18.4 5.7-26.3 15.8-46.5 16.1l2.6-30c-69.4-13.4-31-13.1-65.2 2.3l-0.8 45.3c-13.4 5.2-31 6.7-37.3 16.2-9.4 14.1-2.5 24.4-26.1 25.2 0-57.5-2.4-25.2-37.2-43.7-13.3-7.1-15.3-15.7-16.4-32.8 33-15.3 44.4-28.7 83.8-39.8l4.8 17.7c31.3 1-0.5-8.4 34-11.8l-7-11.6c-0.5-1.3-0.8-1.9-1-2.2q-0.2-1.4-0.6-3.6c38.9-0.5 18.3-15.7 47.5-20.1 32.7-4.9 31.6-6.8 48.5 11.9l-45.4 25.7c14.1 9.3 42.9 13 62.7 15.9 6.2-23.7 13.4-20.3 35-20.7l8.5-17.4-18.2-7.5-0.8-23.2c-56.6-17.1-59-43.7-126.6-8.9l1.4 30.2c-11.1-0.9-16.9-1.8-25.4-6.5l-2.9-16.4c8.1-4.6 15.8-10.7 20.5-19-12.9-2.2-55.4-10-56.5 10.6-0.4 8.3 16 2.8 10.6 23.3l-27 2c-6.8 14.7-10.6 14.4-44.7 11.2l-1.4-21.6c27.6-0.5 38.6-0.7 53-24.8-29.3-15.4-0.5 12.8-58.7 9.5-4.9-9-10.4-15.5-15.8-24-29.7-0.3-37.3-0.7-58.9 14.9l-14.2 13.7 31.7 0.1c4.1 12.6 0.5 11.4-5.4 20.7 30.2-3.5 38.1-4.8 43.4 12.6l-40-0.7c-11-16.1 4.7-6.7-11.8-12.8-4.5-1.7-13.5-2.5-19.7-4.9-15.2-5.8-20.9-6.9-32.8-7.6-104.6 72.3-186.8 174.8-233.8 294.9zm511.5-69.9l0.8-7.7-5.1-2.2-0.5-0.3h-3.9zm-11-6.4c-5.7 6.5-3.9-1.2-3.5 11.3 18.1 1.3 9.9 0.5 14.5-4.9zm24.3-3.7c6.3 30 26.8-0.5 26.9-0.6 9.3-8.8 3.2 5.7 9.5-8.7-0.5-0.3-0.7-3.8-8.7-3.1-9.4 1-4.3 5.5-15.9 9.3-8.4 2.7-2.4-2.4-11.8 3.1zm502.4-164.6c-4.7 9.7-11 6.3-26.7 14.1-13.2 6.6-19.4 14-16.7 29.5 18.5 14 13.9-3.3 24.6 28l28-9.7 3.3 30.6c-26.2-0.4-47.2-11.1-61.8 10.7-17.4 26.1-10.2 24-49.5 28.1l-4.9 27 13.2 9.4-4 14.2c-22.7-4.3-40.8-9.5-63.4 1.3-2 1.9-24.9 59.1 27.4 60.9 14.3 0.5 26.8-1.5 40.3-1.9 6.4-20.1 32.7-53 35.3-54.7 13.8-3.9 15.8 2.8 25.2-0.3 4.5-1.5 12.7-11.7 17.3-15.5 18.5 24.8 0.5 10 41.8 37.7 6.9 4.7 10.5 5.7 12.6 13.1-10.1 7.7-10.5 3.5-25.9 5.1 9.6 18.3 17 16.3 38.4 7.4 0.5-20-0.5-11.9 5.2-28.4-35-17.4-38.7-15.8-45.9-45.1 20.6 0 22.5-3.4 34.8 6.9 55.5 46.8-1.3 29.1 49.6 73.3 16.6-18-4.3-29.9 28.9-43 3.7 36.6 4.8 24.8 18.1 46.6l25.2 0.4c-36.9-94.9-95.8-178.9-170.4-245.7zm-117.4 121.4c37.9 4.4 44.7-0.9 55.3-15.7l-23.8-23c-9.8-14.7-6.8-22.9-13.6-36.2-29.4 1.7-37 18.5-13.1 31.9 26.1 14.7 7.1 17.8 7.1 17.8-8.6 6.3-5-3.8-10.4 8.7-1.4 3.3-1.4 12.2-1.5 16.5zm-44.2-8.3c18.9 0.5 16.7 0.3 29.5-9 12.7-9.2 17.1-7.7 12.2-25-26-12.7-41.5 9.4-41.7 34zm350.5 187.3c-18 1.6-42.8 1.1-54.5-6.8-22.5-15.5-19.5-19.6-56.2-13.3l-0.9 19.6c-0.6 0-76.1-23.2-77.1-23.7l-1.3-35.9c-45.2-0.7-59.7 2.6-91.7 14.5-33.7 12.6-41.5-13.7-82.8 21.4-0.7 46.7 3.4 32-34.9 59.7-11.4 8.3-26.3 20.9-37.6 26.7 3.7 28.8 10 20.5 18.8 28.4-4.9 31.2-9.9 10-12.9 24.8-0.1 56.3-9 41.4 21 75.1 21.8 24.6 31.6 46.2 53.3 46.2 8.6 0 14.5-2.2 19.5-2.9 8.4-1.4 15.5-1.1 24.1-0.9 37.2 0.6 19.6-6 37.9-11.7 38.7-12.2 6 14.9 80.4 18.1-3.8 60-11.2 44.9 15.8 92.4 30.1 53 28.6 35.6 6.6 76.4-21 39.1 11.3 37.9 14.2 60.8 1 8-0.3 22.5-0.2 31.3 0.3 23 9.1 24.1 19.2 39.8 11.1 17.4 2.4 30.4 7.1 51.6l6.4 0.4c94.2-111.8 150.9-256.1 150.9-413.7 0-61.9-8.7-121.7-25.1-178.3z"/>
			</g>
		</g>
	</g>
</svg>