<svg version="1.2" xmlns="http://www.w3.org/2000/svg" viewBox="0 0 3873 3246" width="3873" height="3246">
	<title>vecteezy_prototyping-vector-icon-style_22736634-ai</title>
	<style>
		.s0 { fill: #000000 } 
	</style>
	<g id="_Artboards_">
	</g>
	<g id="Layer 1">
		<g id=" 511303600">
			<path id="&lt;Path&gt;" class="s0" d="m234.5 2941.7c-33.4 0-60.5-27.1-60.5-60.5v-2535.4c0-171.9 139.3-311.3 311.3-311.3 172 0 311.3 139.3 311.3 311.2 0 0 0 0 0 0.1 0 33.4-27.1 60.5-60.5 60.5-33.4 0-60.5-27.1-60.5-60.5 0-105.1-85.2-190.2-190.2-190.2-105 0-190.4 85.1-190.4 190.2v2535.4c0 33.4-27.1 60.5-60.5 60.5z"/>
		</g>
		<g id=" 511303504">
			<path id="&lt;Path&gt;" class="s0" d="m3638.5 3192.5h-3153.2c-33.4 0-60.5-27.1-60.5-60.5 0-33.4 27.1-60.5 60.5-60.5h3092.7v-2665.2h-2781.5v2474.9c0 33.4-27.1 60.5-60.5 60.5-33.4 0-60.5-27.1-60.5-60.5v-2535.4c0-33.4 27.1-60.5 60.5-60.5h2902.5c33.4 0 60.5 27.1 60.5 60.5v2786.2c0 33.4-27.1 60.5-60.5 60.5z"/>
		</g>
		<g id=" 511303576">
			<path id="&lt;Path&gt;" class="s0" d="m485.3 3192.5c-171.9 0-311.3-139.3-311.3-311.3 0-171.9 139.3-311.3 311.3-311.3 172 0 311.3 139.3 311.3 311.3 0 33.4-27.1 60.5-60.5 60.5-33.4 0-60.5-27.1-60.5-60.5 0-105.1-85.2-190.2-190.2-190.2-105 0-190.4 85.1-190.4 190.2 0 105.1 85.2 190.2 190.2 190.2 33.4 0 60.5 27.1 60.5 60.5 0 33.4-27 60.6-60.4 60.6z"/>
		</g>
		<path id="&lt;Compound Path&gt;" fill-rule="evenodd" class="s0" d="m3136.4 2951.2h-475.3c-33.4 0-60.5-27.1-60.5-60.5v-398c0-33.4 27.1-60.5 60.5-60.5h475.3c123.1 0 223.2 116.4 223.2 259.5 0.1 143.1-100.1 259.5-223.2 259.5zm-414.8-121h414.8c55.4 0 102.2-63.4 102.2-138.4 0-75-46.8-138.5-102.2-138.5h-414.8z"/>
		<path id="&lt;Compound Path&gt;" fill-rule="evenodd" class="s0" d="m2661.1 2951.2c-2.9 0-5.7-0.2-8.6-0.6l-276.1-39.9c-29.7-4.3-51.9-29.8-51.9-59.8v-318.4c0-30 22.2-55.5 51.9-59.8l276.1-39.9c33.1-4.8 63.8 18.2 68.5 51.3 0.4 2.9 0.6 5.7 0.6 8.6v398c0 33.4-27.1 60.5-60.5 60.5zm-215.6-152.7l155.1 22.7v-258.6l-155.1 22.3z"/>
		<path id="&lt;Path&gt;" class="s0" d="m2385 2911.4h-934.2c-33.4 0-60.5-27.1-60.5-60.5 0-33.4 27.1-60.5 60.5-60.5h873.7v-197.3h-873.7c-33.4 0-60.5-27.1-60.5-60.5 0-33.4 27.1-60.5 60.5-60.5h934.2c33.4 0 60.5 27.1 60.5 60.5v318.3c0 33.4-27.1 60.5-60.5 60.5z"/>
		<path id="&lt;Compound Path&gt;" fill-rule="evenodd" class="s0" d="m1450.8 2911.4c-8.1 0-16.1-1.7-23.6-4.8l-375.7-159.2c-30.8-13.1-45.2-48.6-32.1-79.4 6.1-14.4 17.6-25.9 32.1-32.1l375.4-158.9c30.8-13 66.3 1.4 79.4 32.1 3.2 7.5 4.8 15.4 4.8 23.5v318.4c0 33.4-27.1 60.5-60.5 60.5zm-220.4-219.4l159.8 68.1v-136.2z"/>
		<path id="&lt;Compound Path&gt;" fill-rule="evenodd" class="s0" d="m2440.7 2308.8c-23.3 0-44.6-13.3-54.6-34.3l-81.8-169.8c-77.5 13.3-156.6 13.3-234 0l-81.8 169.8c-14.5 30.1-50.7 42.8-80.8 28.3l-226.9-109.2c-30.1-14.6-42.7-50.8-28.1-80.9l81.8-169.9c-58.7-52.2-108.1-114-146-182.8l-183.7 42c-32.5 7.4-65-12.9-72.5-45.4l-56.1-245.4c-7.4-32.5 12.9-65 45.4-72.5l183.8-41.9c3.9-78.5 21.4-155.8 52-228.2l-147.3-117.5c-26.1-20.8-30.4-58.9-9.6-85l157-196.7c20.8-26.1 58.9-30.4 85-9.6l147.4 117.6c63.9-45.8 135.3-80.1 210.8-101.7v-188.6c0-33.4 27.1-60.5 60.5-60.5h251.6c33.4 0 60.5 27.1 60.5 60.5v188.4c75.6 21.5 146.9 55.9 210.8 101.7l147.4-117.6c26.1-20.9 64.2-16.6 85 9.5 0 0 0 0.1 0.1 0.1l156.9 196.7c20.8 26.1 16.5 64.2-9.6 85l-147.3 117.5c30.6 72.5 48.1 149.7 52 228.2l183.8 41.9c32.5 7.5 52.8 39.9 45.4 72.5l-56.1 245.4c-7.5 32.5-39.9 52.8-72.5 45.4l-183.7-42c-37.7 68.9-87.1 130.9-145.7 183.1l81.8 169.8c14.5 30.1 1.8 66.3-28.3 80.8l-226.9 109.2c-7.9 4-16.7 6-25.7 6.1zm-102.5-333.6c23.2 0 44.5 13.3 54.5 34.3l76.1 158 117.6-56.7-76.1-158.2c-12.4-25.8-5.1-56.8 17.7-74.3 73.2-56.1 131.6-129.3 170.1-213.1 12-26.1 40.5-40.2 68.5-33.8l171 39 29.1-127.4-171.2-39c-28.1-6.4-47.7-31.8-47-60.5 0-3.9 0-7.6 0-11.6 0.3-88.3-20.4-175.4-60.5-254.1-13-25.6-6.3-56.8 16.2-74.7l137.1-109.3-81.5-102.1-137.2 109.4c-22.4 17.9-54.3 17.5-76.4-0.8-70.9-59-155.1-99.7-245.5-118.4-28.1-5.7-48.3-30.5-48.3-59.2v-175.1h-130.4v175.4c0 28.7-20.2 53.5-48.3 59.2-90.3 18.8-174.6 59.5-245.5 118.5-22.1 18.3-54 18.6-76.4 0.8l-137.2-109.4-81.5 102.1 137.1 109.3c22.5 17.9 29.2 49.2 16.2 74.7-40.1 78.7-60.8 165.8-60.5 254.1 0 3.9 0 7.7 0 11.6 0.8 28.8-19 54.1-47.1 60.5l-171.1 38.7 29.5 127.4 171-39c28-6.4 56.6 7.7 68.5 33.8 38.4 83.7 96.6 156.9 169.7 212.9 22.8 17.5 30.1 48.5 17.7 74.3l-76.1 158.2 117.6 56.7 76.2-157.9c12.5-25.9 41.4-39.4 69.2-32.5 89.4 22.1 182.9 22.1 272.3 0 5-1.2 9.9-1.8 14.9-1.8z"/>
		<path id="&lt;Compound Path&gt;" fill-rule="evenodd" class="s0" d="m2187.3 1821.2c-222.8 0-403.6-180.7-403.6-403.6 0-222.9 180.7-403.6 403.6-403.6 222.9 0 403.6 180.7 403.6 403.6v0.1c-0.3 222.8-180.9 403.3-403.6 403.5zm0-686c-156.1 0-282.5 126.5-282.5 282.5 0 156 126.5 282.5 282.5 282.5 156 0 282.5-126.5 282.5-282.5-0.2-156-126.6-282.4-282.5-282.5z"/>
	</g>
</svg>