<svg version="1.2" xmlns="http://www.w3.org/2000/svg" viewBox="0 0 662 443" width="662" height="443">
	<title>user_icon_007-ai</title>
	<style>
		.s0 { fill: #000000 } 
	</style>
	<g id="_Artboards_">
	</g>
	<g id="Layer 1">
		<path id="&lt;Compound Path&gt;" class="s0" d="m152 163.6c43.1 0 78-34.9 78-78 0-43.1-34.9-78-78-78-43.1 0-78 34.9-78 78 0 43.1 34.9 78 78 78zm98 52.9c-9-9.9-16-21.5-20.6-34.3-11.1-4-23-6.3-35.4-6.3h-84c-56.9 0-103 46.2-103 103v71.5c40.6 16.7 90.7 26.5 145 26.5q2.1 0 4.2 0v-36.4c0-58.9 39.7-108.7 93.8-124zm252-52.9c43.1 0 78-34.9 78-78 0-43.1-34.9-78-78-78-43.1 0-78 34.9-78 78 0 43.1 34.9 78 78 78zm42 12.3h-84c-12.4 0-24.3 2.3-35.4 6.3-4.6 12.8-11.6 24.4-20.6 34.3 54.1 15.3 93.8 65.1 93.8 124v36.4q2.1 0 4.2 0c54.3 0 104.4-9.8 145-26.5v-71.5c0-56.8-46.1-103-103-103zm-286.8 6c7.4 14.9 19.5 27.1 34.4 34.7 5.8 2.9 12 5.2 18.4 6.6 5.5 1.2 11.2 1.9 17 1.9 5.8 0 11.5-0.7 17-1.9 6.4-1.4 12.6-3.7 18.4-6.6 14.9-7.6 27-19.8 34.4-34.7 2.9-5.8 5.1-12 6.5-18.5 1.1-5.3 1.7-10.7 1.7-16.3 0-43.1-34.9-78-78-78-43.1 0-78 34.9-78 78 0 5.6 0.6 11 1.7 16.3 1.4 6.5 3.6 12.7 6.5 18.5zm111.8 55.6h-84c-56.9 0-103 46.1-103 103v71.4c40.6 16.7 90.7 26.5 145 26.5 54.3 0 104.4-9.8 145-26.5v-71.4c0-56.9-46.1-103-103-103z"/>
	</g>
</svg>