<svg version="1.2" xmlns="http://www.w3.org/2000/svg" viewBox="0 0 1174 1470" width="1174" height="1470">
	<title>vecteezy_quality-badge-icon-design-medal-and-ribbon-vector_3678261-ai</title>
	<style>
		.s0 { fill: #060606 } 
		.s1 { fill: #ffffff } 
	</style>
	<g id="_Artboards_">
	</g>
	<g id="design">
		<g id="badge">
			<path id="&lt;Compound Path&gt;" class="s0" d="m234.7 883.9l-232.1 402 221.5-13.4 82.8 189 244.2-422.8c-23.4-15.1-46.2-40.6-69.8-45.8-38.9-8.6-96.3 21.6-132.6 5.3-31.9-14.3-39-73.2-66.6-94.6-12.1-9.5-29.4-14.9-47.4-19.7z"/>
			<path id="&lt;Compound Path&gt;" class="s0" d="m942.1 878.4c-10.1 3-19.2 6.7-26.2 12.2-31 24.6-42.8 87.7-78.2 105.5-31.2 15.7-82.4-15.7-116.5-7.8-30 6.8-59.7 39.4-90.1 54.1l242 419.1 82.8-189 221.5 13.4z"/>
			<path id="&lt;Compound Path&gt;" class="s0" d="m814.2 959.6c-29.5 14.8-78-14.8-110.2-7.4-36.7 8.4-73 57.4-110.6 58.2-33.2 0.7-63.8-46.7-96.2-53.8-36.7-8.1-91 20.4-125.3 5-30.2-13.5-37-69.3-63-89.5-29.6-23-91.2-20.6-115.3-49.1-21.3-25.1-2.9-78.2-17.4-107.5-16.6-33.4-73.2-57.5-82.4-93.5-8.2-31.7 31.8-71.6 31.6-104.3-0.2-37.1-40.6-83-33.1-119.3 6.6-32 60.2-50.8 74.4-80.3 16.1-33.5-0.1-92.1 22.7-121.6 20-26 76.7-20 102.4-40.5 29.3-23.2 40.5-82.9 74-99.8 29.5-14.8 78 14.9 110.2 7.5 36.7-8.5 73-57.4 110.6-58.2 33.2-0.7 63.8 46.7 96.2 53.8 36.7 8.1 91-20.4 125.3-5.1 30.2 13.6 37 69.3 63 89.6 29.6 23 91.2 20.5 115.3 49 21.3 25.1 2.9 78.2 17.4 107.6 16.6 33.4 73.2 57.5 82.4 93.5 8.2 31.7-31.8 71.6-31.6 104.2 0.2 37.1 40.6 83 33.1 119.4-6.6 32-60.2 50.8-74.4 80.3-16.1 33.5 0.1 92.1-22.7 121.6-20 26-76.7 20-102.4 40.5-29.3 23.2-40.5 82.9-74 99.7z"/>
			<path id="&lt;Compound Path&gt;" class="s1" d="m994.2 507.9c0 107.2-42.6 210.1-118.4 285.9-75.8 75.8-178.6 118.3-285.8 118.3-107.2 0-210-42.5-285.8-118.3-75.8-75.8-118.4-178.7-118.4-285.9 0-107.2 42.6-210 118.4-285.8 75.8-75.8 178.6-118.4 285.8-118.4 107.2 0 210 42.6 285.8 118.4 75.8 75.8 118.4 178.6 118.4 285.8z"/>
			<path id="&lt;Compound Path&gt;" class="s0" d="m943.3 507.9c0 93.7-37.3 183.6-103.5 249.8-66.3 66.3-156.1 103.5-249.8 103.5-93.7 0-183.5-37.2-249.8-103.5-66.2-66.2-103.5-156.1-103.5-249.8 0-93.7 37.3-183.5 103.5-249.8 66.3-66.2 156.1-103.4 249.8-103.4 93.7 0 183.5 37.2 249.8 103.4 66.2 66.3 103.5 156.1 103.5 249.8z"/>
			<path id="&lt;Compound Path&gt;" class="s1" d="m356.7 512.9l112.9 112.9 59 59 58.9-59 235.8-235.8-58.9-58.9-235.8 235.8-113-113z"/>
		</g>
	</g>
</svg>