<svg version="1.2" xmlns="http://www.w3.org/2000/svg" viewBox="0 0 3388 2980" width="3388" height="2980">
	<title>vecteezy_real-time-quotes-vector-icon-design_16422785-0-ai</title>
	<defs>
		<linearGradient id="g1" x2="1" gradientUnits="userSpaceOnUse" gradientTransform="matrix(3304.863,0,0,2905.789,44.068,27.606)">
			<stop offset="0" stop-color="#000000"/>
			<stop offset="1" stop-color="#002020"/>
		</linearGradient>
	</defs>
	<style>
		.s0 { fill: url(#g1) } 
	</style>
	<g id="Layer 1">
		<path id="&lt;Compound Path&gt;" fill-rule="evenodd" class="s0" d="m2094.1 2139.9c-57.6 67.4-89.2 153.1-89.2 243.3 0 71.7 19.7 140.3 57.2 199.8h480.4c24.3 0 43.9 19.7 43.9 44v262.4c0 24.3-19.6 44-43.9 44h-1692c-24.2 0-43.9-19.7-43.9-44v-262.4c0-24.3 19.7-44 43.9-44h480.4c37.4-59.5 57.2-128.1 57.2-199.8 0-90.2-31.6-175.9-89.3-243.3h-1049.5c-113.1 0-205.2-92-205.2-205.2v-1701.8c0-113.2 92.1-205.3 205.2-205.3h2894.4c113.2 0 205.2 92.1 205.2 205.3v1701.8c0 113.2-92 205.2-205.2 205.2zm-1962.1-205.2c0 64.7 52.5 117.2 117.3 117.2h2894.3c64.8 0 117.3-52.5 117.3-117.2v-1701.8c0-64.8-52.5-117.3-117.3-117.3h-2894.3c-64.8 0-117.3 52.5-117.3 117.3zm1275.4 205.2c44.6 72.3 68.6 156.2 68.6 243.4 0 70.1-15.4 138-44.9 199.8h530.7c-29.6-61.8-44.9-129.7-44.9-199.8 0-87.2 23.9-171.1 68.6-243.4zm-817.9-178.4c-24.3 0-44-19.7-44-44 0-24.3 19.7-44 44-44h221.2v-525.3c0-24.3 19.7-44 44-44h218c24.3 0 44 19.7 44 44v525.3h182.5v-686.8c0-24.3 19.7-43.9 44-43.9h218c24.3 0 44 19.6 44 43.9v686.8h182.5v-894c0-24.3 19.7-44 44-44h218c24.3 0 44 19.7 44 44v894h182.5v-1160.2c0-24.3 19.7-44 44-44h218c24.3 0 44 19.7 44 44v1160.2h221.2c24.3 0 44 19.7 44 44 0 24.3-19.7 44-44 44zm1908.9 884v-174.5h-1603.9v174.5zm-1599.8-972h130.1v-481.3h-130.1zm488.5 0h130.1v-642.8h-130.1zm488.5 0h130.1v-850h-130.1zm488.5 0h130.1v-1116.2h-130.1zm-1458.6-1256c0-226.9 184.5-411.4 411.4-411.4 226.8 0 411.4 184.5 411.4 411.4 0 226.8-184.6 411.4-411.4 411.4-226.8 0-411.4-184.6-411.4-411.4zm367.4-320.4c-143.2 19.6-256.8 133.2-276.4 276.4h45.9c24.3 0 43.9 19.7 43.9 44 0 24.3-19.6 44-43.9 44h-45.9c19.5 143.2 133.2 256.9 276.4 276.4v-45.9c0-24.3 19.7-44 44-44 24.3 0 44 19.7 44 44v45.9c143.2-19.5 256.9-133.2 276.4-276.4h-45.9c-24.3 0-44-19.7-44-44 0-24.3 19.7-44 44-44h45.9c-19.6-143.2-133.2-256.8-276.4-276.4v45.9c0 24.3-19.7 44-44 44-24.3 0-44-19.7-44-44zm46 364.3h-74.6c-24.3 0-44-19.6-44-43.9 0-24.3 19.7-44 44-44h30.7v-81.2c0-24.3 19.7-44 43.9-44 24.3 0 44 19.7 44 44v125.2c0 24.3-19.7 43.9-44 43.9z"/>
	</g>
</svg>