<svg version="1.2" xmlns="http://www.w3.org/2000/svg" viewBox="0 0 3873 3873" width="3873" height="3873">
	<title>vecteezy_documents-creative-icon-design_14958908-ai</title>
	<style>
		.s0 { fill: #000000 } 
	</style>
	<g id="_Artboards_">
	</g>
	<g id="Layer 1">
		<path id="&lt;Compound Path&gt;" fill-rule="evenodd" class="s0" d="m1585 3305.7c-52.7 0-55.7-61-73.4-120.6-34.6 0.2-70.8-0.4-107.6-2.3-21.9 58.3-27.9 129.7-83.8 113.2-54.7-16.2-24.7-79.2-10.3-121.2-529.9-64.7-165.6-362.4 287.2-362.4 172.3 0 210.7 116.8 140.1 274.1 189.1-4.8 126.3 56.1 182.5 72.9 108.7 32.5 246.2-231.2 367.7-46.1 32.7 49.9-43.1 99.8-75.9 49.8-33.7-51.4-39-17.2-150.7 49.9-104.2 62.5-202.3 49.2-248.6-32.8-20.3-4.9-74.3-3.2-124.7-1-36.7 53.2-56.8 126.5-102.5 126.5zm-142.2-212.2c13.2 0.4 26.2 0.7 39.1 0.8l-14.9-40c-7.1 8.8-15.4 22.4-24.2 39.2zm28.4-138.6c65.4 0 85.9 78.1 106.2 138 19.6-0.6 38.4-1.3 56.5-2.1 74.5-137.4 63.6-187.7-36.7-187.7-212.9 0-431.5 88.6-455.5 134.1 31.5 27.9 152.9 45 202.7 50 34.1-74.4 76.4-132.3 126.8-132.3z"/>
		<path id="&lt;Compound Path&gt;" fill-rule="evenodd" class="s0" d="m2724.2 3468.5h-1931.2c-25.1 0-45.4-20.4-45.4-45.4v-2973.2c0-25 20.3-45.4 45.4-45.4h2287c25.1 0 45.4 20.4 45.4 45.4v2719.2c0 14.6-7.1 28.4-19 36.9l-355.9 254c-7.6 5.5-16.9 8.5-26.3 8.5zm-1885.8-90.8h1871.2l325-232v-2650.4h-2196.2z"/>
		<path id="&lt;Compound Path&gt;" fill-rule="evenodd" class="s0" d="m2724.2 3468.5c-24.9 0-45.4-20.3-45.4-45.4v-355.9c0-25 20.3-45.4 45.4-45.4h355.8c60.3 0 45.4 80.5 45.4 147.3 0 14.6-7.1 28.4-19 36.9l-355.9 254c-7.8 5.6-17 8.5-26.3 8.5zm45.4-355.9v222.3l265-189.2v-33.1z"/>
		<path id="&lt;Compound Path&gt;" class="s0" d="m2833.2 1243.9h-1350c-59.7 0-59.7-90.8 0-90.8h1350c59.8 0 59.8 90.8 0 90.8zm-1614.3 0h-179.2c-59.7 0-59.7-90.8 0-90.8h179.2c59.8 0 59.8 90.8 0 90.8z"/>
		<path id="&lt;Compound Path&gt;" class="s0" d="m2833.2 1610.3h-568c-59.8 0-59.7-90.8 0-90.8h568c59.8 0 59.8 90.8 0 90.8zm-814.6 0h-978.9c-59.7 0-59.7-90.8 0-90.8h978.9c59.7 0 59.7 90.8 0 90.8z"/>
		<path id="&lt;Compound Path&gt;" class="s0" d="m2833.2 1976.7h-202.7c-59.7 0-59.7-90.7 0-90.7h202.7c59.8 0 59.8 90.7 0 90.7zm-445.6 0h-1347.9c-59.7 0-59.7-90.7 0-90.7h1347.9c59.7 0 59.8 90.7 0 90.7z"/>
		<path id="&lt;Compound Path&gt;" class="s0" d="m2833.2 2343.1h-1207.6c-59.7 0-59.7-90.8 0-90.8h1207.6c59.8 0 59.8 90.8 0 90.8zm-1476.6 0h-316.9c-59.7 0-59.7-90.8 0-90.8h316.9c59.8 0 59.8 90.8 0 90.8z"/>
		<path id="&lt;Compound Path&gt;" class="s0" d="m2833.2 2740.3h-1350c-59.7 0-59.7-90.7 0-90.7h1350c59.8 0 59.8 90.7 0 90.7zm-1614.3 0h-179.2c-59.7 0-59.7-90.7 0-90.7h179.2c59.8 0 59.8 90.7 0 90.7z"/>
		<path id="&lt;Compound Path&gt;" class="s0" d="m2833.2 877.5h-1350c-59.7 0-59.7-90.8 0-90.8h1350c59.8 0 59.8 90.8 0 90.8zm-1614.3 0h-179.2c-59.7 0-59.7-90.8 0-90.8h179.2c59.8 0 59.8 90.8 0 90.8z"/>
		<path id="&lt;Compound Path&gt;" fill-rule="evenodd" class="s0" d="m2675.8 3872.7h-2287c-25.1 0-45.4-20.4-45.4-45.4v-2973.2c0-25 20.3-45.3 45.4-45.3h404.2c25 0 45.4 20.3 45.4 45.3v2523.6h1837.4c25 0 45.4 20.3 45.4 45.4v404.2c0 25-20.4 45.4-45.4 45.4zm-2241.7-90.8h2196.3v-313.4h-1837.4c-25.1 0-45.4-20.4-45.4-45.4v-2523.6h-313.5z"/>
		<path id="&lt;Compound Path&gt;" fill-rule="evenodd" class="s0" d="m3484.2 3064.2h-404.2c-25 0-45.4-20.3-45.4-45.3v-2523.6h-1837.4c-25 0-45.4-20.3-45.4-45.4v-404.2c0-25 20.4-45.4 45.4-45.4h2287.1c25 0 45.3 20.4 45.3 45.4v2973.2c0 25-20.3 45.3-45.4 45.3zm-45.4-90.7v-2882.4h-2196.2v313.4h1837.4c25.1 0 45.4 20.4 45.4 45.4v2523.6z"/>
	</g>
</svg>