<svg version="1.2" xmlns="http://www.w3.org/2000/svg" viewBox="0 0 1202 1154" width="1202" height="1154">
	<title>vecteezy_green-check-mark-icon-vector-illustration_7743115-ai</title>
	<style>
		.s0 { fill: #000000 } 
	</style>
	<g id="Layer 1">
		<g id="&lt;Group&gt;">
			<g id="&lt;Group&gt;">
				<path id="&lt;Path&gt;" class="s0" d="m581.6 1141.8c-76.1 0-150-15-219.5-44.4-67.1-28.4-127.4-69-179.2-120.8-51.7-51.7-92.4-112-120.8-179.1-29.4-69.6-44.3-143.4-44.3-219.5 0-76.1 14.9-149.9 44.3-219.5 28.4-67.1 69.1-127.4 120.8-179.1 51.8-51.8 112.1-92.4 179.2-120.8 69.5-29.4 143.4-44.3 219.5-44.3 76.1 0 149.9 14.9 219.4 44.3 22.3 9.4 32.8 35.1 23.3 57.4-9.4 22.3-35.1 32.8-57.4 23.3-58.7-24.8-121-37.4-185.3-37.4-127.2 0-246.7 49.6-336.7 139.5-89.9 89.9-139.4 209.4-139.4 336.6 0 127.2 49.5 246.7 139.4 336.6 90 89.9 209.5 139.5 336.7 139.5 127.1 0 246.7-49.6 336.6-139.5 89.9-89.9 139.4-209.4 139.4-336.6 0-72.3-15.8-141.8-46.9-206.4-10.5-21.8-1.3-48 20.5-58.5 21.8-10.5 48-1.3 58.5 20.5 36.9 76.6 55.6 158.8 55.6 244.4 0 76.1-14.9 149.9-44.3 219.5-28.4 67.1-69 127.4-120.8 179.1-51.8 51.8-112 92.4-179.2 120.8-69.5 29.4-143.3 44.4-219.4 44.4z"/>
			</g>
			<path id="&lt;Path&gt;" class="s0" d="m268.5 500.9c0 0 132.9 105.2 233.8 321.5 0 0 48.2 119.9 99.4 8.8 51.1-111.1 220.6-523.2 575.8-754.1 0 0 27.7-17.5 19-38-3.7-8.5-24.9-13.4-59.9 5.8-87.7 48.3-432.6 226.6-590.5 593.4 0 0-76-160.8-247-190 0 0-77.4-7.3-30.6 52.6z"/>
		</g>
	</g>
</svg>