<svg width="24" height="24" viewBox="0 0 24 24" fill="none" xmlns="http://www.w3.org/2000/svg">
<path fill-rule="evenodd" clip-rule="evenodd" d="M9.02857 6.4186C9.02857 5.61679 9.34163 4.84781 9.89888 4.28084C10.4561 3.71387 11.2119 3.39535 12 3.39535C12.7881 3.39535 13.5439 3.71387 14.1011 4.28084C14.6584 4.84781 14.9714 5.61679 14.9714 6.4186C14.9714 7.22042 14.6584 7.9894 14.1011 8.55637C13.5439 9.12334 12.7881 9.44186 12 9.44186C11.2119 9.44186 10.4561 9.12334 9.89888 8.55637C9.34163 7.9894 9.02857 7.22042 9.02857 6.4186ZM12 2C10.8482 2 9.74358 2.46553 8.92914 3.29418C8.11469 4.12283 7.65714 5.24672 7.65714 6.4186C7.65714 7.59049 8.11469 8.71438 8.92914 9.54303C9.74358 10.3717 10.8482 10.8372 12 10.8372C13.1518 10.8372 14.2564 10.3717 15.0709 9.54303C15.8853 8.71438 16.3429 7.59049 16.3429 6.4186C16.3429 5.24672 15.8853 4.12283 15.0709 3.29418C14.2564 2.46553 13.1518 2 12 2ZM9.07429 13.1628C7.7285 13.1628 6.43784 13.7067 5.48622 14.6749C4.53461 15.6431 4 16.9563 4 18.3256C4 19.3001 4.38049 20.2347 5.05776 20.9238C5.73504 21.6129 6.65362 22 7.61143 22H16.3886C17.3464 22 18.265 21.6129 18.9422 20.9238C19.6195 20.2347 20 19.3001 20 18.3256C20 17.6476 19.8688 16.9762 19.6137 16.3499C19.3587 15.7235 18.985 15.1543 18.5138 14.6749C18.0426 14.1955 17.4832 13.8152 16.8676 13.5558C16.2519 13.2963 15.5921 13.1628 14.9257 13.1628H9.07429ZM5.37143 18.3256C5.37143 17.3264 5.76155 16.3681 6.45597 15.6616C7.15039 14.9551 8.09223 14.5581 9.07429 14.5581H14.9257C15.9078 14.5581 16.8496 14.9551 17.544 15.6616C18.2384 16.3681 18.6286 17.3264 18.6286 18.3256C18.6286 18.93 18.3926 19.5097 17.9725 19.9371C17.5524 20.3645 16.9827 20.6047 16.3886 20.6047H7.61143C7.01734 20.6047 6.44759 20.3645 6.02751 19.9371C5.60743 19.5097 5.37143 18.93 5.37143 18.3256Z" fill="white"/>
</svg>
