<svg width="24" height="24" viewBox="0 0 24 24" fill="none" xmlns="http://www.w3.org/2000/svg">
<path fill-rule="evenodd" clip-rule="evenodd" d="M7.5814 2.69767C7.5814 2.51264 7.6549 2.33518 7.78574 2.20434C7.91658 2.0735 8.09404 2 8.27907 2H15.7209C15.906 2 16.0834 2.0735 16.2143 2.20434C16.3451 2.33518 16.4186 2.51264 16.4186 2.69767C16.4186 2.88271 16.3451 3.06017 16.2143 3.191C16.0834 3.32184 15.906 3.39535 15.7209 3.39535H8.27907C8.09404 3.39535 7.91658 3.32184 7.78574 3.191C7.6549 3.06017 7.5814 2.88271 7.5814 2.69767ZM6.4186 4.7907C6.23357 4.7907 6.05611 4.8642 5.92527 4.99504C5.79444 5.12588 5.72093 5.30334 5.72093 5.48837C5.72093 5.67341 5.79444 5.85086 5.92527 5.9817C6.05611 6.11254 6.23357 6.18605 6.4186 6.18605H17.5814C17.7664 6.18605 17.9439 6.11254 18.0747 5.9817C18.2056 5.85086 18.2791 5.67341 18.2791 5.48837C18.2791 5.30334 18.2056 5.12588 18.0747 4.99504C17.9439 4.8642 17.7664 4.7907 17.5814 4.7907H6.4186ZM8.65116 7.5814H8.62046C7.60465 7.5814 6.79907 7.5814 6.1507 7.63442C5.48651 7.68837 4.92558 7.80186 4.41302 8.06233C3.58138 8.48621 2.90534 9.16257 2.48186 9.99442C2.22047 10.506 2.10698 11.0679 2.05302 11.7321C2 12.3805 2 13.186 2 14.2019V15.3795C2 16.3953 2 17.2009 2.05302 17.8493C2.10698 18.5135 2.22047 19.0744 2.48093 19.5879C2.90497 20.4192 3.58132 21.0949 4.41302 21.5181C4.92465 21.7795 5.48651 21.893 6.1507 21.947C6.79907 22 7.60465 22 8.62046 22H15.3795C16.3953 22 17.2009 22 17.8493 21.947C18.5135 21.893 19.0744 21.7795 19.5879 21.5191C20.4191 21.0953 21.0947 20.4193 21.5181 19.5879C21.7795 19.0744 21.893 18.5135 21.947 17.8493C22 17.2009 22 16.3953 22 15.3795V14.2019C22 13.186 22 12.3805 21.947 11.7321C21.893 11.0679 21.7795 10.507 21.5191 9.99442C21.0954 9.16292 20.4194 8.4869 19.5879 8.06326C19.0744 7.80186 18.5135 7.68837 17.8493 7.63442C17.2009 7.5814 16.3953 7.5814 15.3795 7.5814H8.65116ZM5.04651 9.30605C5.3293 9.16186 5.68651 9.07256 6.26419 9.02512C6.85023 8.97767 7.59814 8.97674 8.65116 8.97674H15.3488C16.4028 8.97674 17.1507 8.97674 17.7358 9.02512C18.3126 9.07163 18.6707 9.16186 18.9544 9.30605C19.5231 9.59587 19.9855 10.0583 20.2753 10.627C20.4195 10.9107 20.5088 11.2688 20.5563 11.8456C20.6037 12.4316 20.6047 13.1795 20.6047 14.2326V15.3488C20.6047 16.4028 20.6047 17.1507 20.5563 17.7358C20.5098 18.3126 20.4195 18.6707 20.2753 18.9544C19.9855 19.5231 19.5231 19.9855 18.9544 20.2753C18.6707 20.4195 18.3126 20.5088 17.7358 20.5563C17.1498 20.6037 16.4028 20.6047 15.3488 20.6047H8.65116C7.59814 20.6047 6.8493 20.6047 6.26419 20.5563C5.68744 20.5098 5.3293 20.4195 5.04558 20.2753C4.47687 19.9855 4.01448 19.5231 3.72465 18.9544C3.58047 18.6707 3.49116 18.3126 3.44372 17.7358C3.39628 17.1498 3.39535 16.4028 3.39535 15.3488V14.2326C3.39535 13.1786 3.39535 12.4307 3.44372 11.8456C3.49023 11.2688 3.58047 10.9107 3.72465 10.627C4.01448 10.0583 4.47687 9.59587 5.04558 9.30605H5.04651ZM12.84 12.0316L12.814 12.014C12.4605 11.7786 12.1563 11.5767 11.9014 11.4372C11.6456 11.2995 11.3302 11.1619 10.973 11.1833C10.7382 11.1971 10.5092 11.2616 10.3017 11.3724C10.0942 11.4832 9.91323 11.6377 9.77116 11.8251C9.55535 12.1116 9.49488 12.4502 9.46791 12.7395C9.44186 13.0279 9.44186 13.3944 9.44186 13.8186V15.7628C9.44186 16.187 9.44186 16.5535 9.46791 16.8419C9.49488 17.1302 9.55535 17.4698 9.77116 17.7553C10.0595 18.1349 10.4967 18.3693 10.973 18.3981C11.3302 18.4195 11.6456 18.2819 11.9014 18.1442C12.1563 18.0047 12.4605 17.8028 12.813 17.5674L12.8409 17.5488L14.2502 16.6093L14.2753 16.5926C14.5637 16.4 14.8195 16.2298 15.014 16.0735C15.214 15.9116 15.427 15.706 15.5479 15.414C15.6298 15.2164 15.6719 15.0046 15.6719 14.7907C15.6719 14.5768 15.6298 14.365 15.5479 14.1674C15.427 13.8753 15.214 13.6688 15.014 13.507C14.8195 13.3516 14.5647 13.1814 14.2753 12.9888L14.2502 12.9721L12.84 12.0326V12.0316ZM10.893 12.6567C10.9309 12.6124 10.984 12.5838 11.0419 12.5767C11.0586 12.5814 11.1163 12.5991 11.2372 12.6642C11.4288 12.7684 11.6791 12.934 12.067 13.1926L13.4763 14.1321C13.7981 14.347 13.9991 14.4828 14.1367 14.5935C14.1827 14.6276 14.2248 14.6666 14.2623 14.7098C14.2809 14.7619 14.2809 14.8195 14.2623 14.8716C14.2251 14.9147 14.1833 14.9537 14.1377 14.9879C13.9991 15.0995 13.7981 15.2344 13.4772 15.4484L12.067 16.3879C11.6791 16.6465 11.4288 16.813 11.2363 16.9172C11.1153 16.9823 11.0586 17 11.0419 17.0047C10.984 16.9976 10.9309 16.969 10.893 16.9247C10.8736 16.8561 10.8617 16.7856 10.8577 16.7144C10.8378 16.3868 10.831 16.0584 10.8372 15.7302V13.8512C10.8372 13.386 10.8372 13.0847 10.8577 12.867C10.8707 12.7302 10.8874 12.6726 10.893 12.6567Z" fill="white"/>
</svg>
