<svg width="24" height="24" viewBox="0 0 24 24" fill="none" xmlns="http://www.w3.org/2000/svg">
<path d="M7.99999 19.5455C8.65859 21.0273 10.3784 22 12 22C13.6216 22 15.3414 21.0273 16 19.5455M18 11.1902V8C18 4.68629 15.3137 2 12 2C8.68628 2 5.99999 4.68629 5.99999 8V11.1902C5.99999 12.0239 5.64614 12.8185 5.02646 13.3762L3.91853 14.3733C2.59603 15.5636 3.01796 17.7338 4.69008 18.3419L4.90108 18.4186C9.4868 20.0861 14.5132 20.0861 19.0989 18.4186L19.3099 18.3419C20.982 17.7338 21.404 15.5636 20.0815 14.3733L18.9735 13.3762C18.3539 12.8185 18 12.0239 18 11.1902Z" stroke="white" stroke-width="1.5" stroke-linecap="round" stroke-linejoin="round"/>
</svg>
