<svg width="24" height="24" viewBox="0 0 24 24" fill="none" xmlns="http://www.w3.org/2000/svg">
<path d="M12 22C17.5228 22 22 17.5228 22 12C22 6.47715 17.5228 2 12 2C6.47715 2 2 6.47715 2 12C2 17.5228 6.47715 22 12 22Z" stroke="white" stroke-width="1.5" stroke-linecap="round" stroke-linejoin="round"/>
<path d="M14.6486 14.0426C14.5031 14.0825 14.3704 14.1596 14.2637 14.2663C14.1569 14.373 14.0798 14.5057 14.0399 14.6512L12.4156 20.4965C12.3903 20.5882 12.3356 20.6691 12.2599 20.7268C12.1842 20.7844 12.0916 20.8156 11.9965 20.8156C11.9013 20.8156 11.8088 20.7844 11.733 20.7268C11.6573 20.6691 11.6026 20.5882 11.5773 20.4965L9.95906 14.6478C9.91915 14.5022 9.84204 14.3695 9.73532 14.2628C9.62859 14.1561 9.49593 14.079 9.35037 14.0391L3.50863 12.4191C3.41689 12.3938 3.33599 12.3391 3.27833 12.2634C3.22068 12.1876 3.18945 12.0951 3.18945 11.9999C3.18945 11.9048 3.22068 11.8122 3.27833 11.7365C3.33599 11.6608 3.41689 11.6061 3.50863 11.5808L9.82602 9.82603L11.5799 3.50777C11.6052 3.41603 11.6599 3.33513 11.7356 3.27748C11.8114 3.21982 11.9039 3.1886 11.9991 3.1886C12.0942 3.1886 12.1868 3.21982 12.2625 3.27748C12.3382 3.33513 12.3929 3.41603 12.4182 3.50777L14.1738 9.82603L20.4912 11.5808C20.583 11.6061 20.6639 11.6608 20.7215 11.7365C20.7792 11.8122 20.8104 11.9048 20.8104 11.9999C20.8104 12.0951 20.7792 12.1876 20.7215 12.2634C20.6639 12.3391 20.583 12.3938 20.4912 12.4191L14.6486 14.0426Z" stroke="white" stroke-width="1.5" stroke-linecap="round" stroke-linejoin="round"/>
<path d="M11.4509 12.65H11.4502V12.6491L11.4509 12.65ZM12.7491 12.65L12.7502 12.6487V12.65H12.7491Z" fill="white" stroke="white" stroke-width="1.5"/>
<path d="M7.65283 7.65222L9.82675 9.82613" stroke="white" stroke-width="1.5" stroke-linecap="round" stroke-linejoin="round"/>
<path d="M14.2671 14.2653L16.3488 16.3479" stroke="white" stroke-width="1.5" stroke-linecap="round" stroke-linejoin="round"/>
<path d="M16.3487 7.65222L14.1748 9.82613" stroke="white" stroke-width="1.5" stroke-linecap="round" stroke-linejoin="round"/>
<path d="M9.73544 14.2653L7.65283 16.3479" stroke="white" stroke-width="1.5" stroke-linecap="round" stroke-linejoin="round"/>
</svg>
