<svg version="1.2" xmlns="http://www.w3.org/2000/svg" viewBox="0 0 822 952" width="822" height="952">
	<title>illust58-7381-01-ai</title>
	<style>
		.s0 { fill: #b5914f } 
	</style>
	<g id="Layer 4">
		<g id="&lt;Group&gt;">
			<path id="&lt;Compound Path&gt;" fill-rule="evenodd" class="s0" d="m1.4 237v-50.1h43.1c3-26.6 23.5-47.5 48.3-47.5h96.1v-21.3c0-62.4 36.2-113.1 80.7-113.1h265.9c44.5 0 80.7 50.7 80.7 113.1v21.3h100.9c24.8 0 45.3 20.9 48.3 47.5h57.4v50.1zm235-97.6h332.3v-21.3c0-25.7-14.9-46.6-33.2-46.6h-265.9c-18.3 0-33.2 20.9-33.2 46.6z"/>
			<path id="&lt;Compound Path&gt;" fill-rule="evenodd" class="s0" d="m822.8 268.6v52.8h-44.2l-103 627.5h-534.6l-98.1-627.5h-39.2v-23.8h-2.3v-29zm-524.8 117.3c0-26.8-19.3-48.7-42.9-48.7h-3.6c-23.5 0-42.8 21.9-42.8 48.7v429.9c0 26.8 19.3 48.7 42.8 48.7h3.6c23.6 0 42.9-21.9 42.9-48.7zm157.1 0c0-26.8-19.3-48.7-42.9-48.7h-3.5c-23.6 0-42.9 21.9-42.9 48.7v430c0 26.7 19.3 48.6 42.9 48.6h3.5c23.6 0 42.9-21.9 42.9-48.6zm160.7 0c0-26.8-19.3-48.7-42.9-48.7h-3.5c-23.6 0-42.9 21.9-42.9 48.7v429.9c0 26.8 19.3 48.7 42.9 48.7h3.5c23.6 0 42.9-21.9 42.9-48.7z"/>
		</g>
	</g>
</svg>