<svg width="24" height="25" viewBox="0 0 24 25" fill="none" xmlns="http://www.w3.org/2000/svg">
<path d="M14.0031 13.4513L12.4875 14.4617C11.6795 15.0004 11.2754 15.2697 10.9404 15.2497C10.6485 15.2323 10.3789 15.088 10.2025 14.8548C10 14.5871 10 14.1015 10 13.1304V11.1096C10 10.1385 10 9.65289 10.2025 9.38519C10.3789 9.15199 10.6485 9.0077 10.9404 8.9903C11.2754 8.9703 11.6795 9.2396 12.4875 9.7783L14.0031 10.7887C14.6708 11.2338 15.0046 11.4564 15.1209 11.7369C15.2227 11.9822 15.2227 12.2578 15.1209 12.5031C15.0046 12.7836 14.6708 13.0062 14.0031 13.4513ZM8.4 19.12H15.6C17.8402 19.12 18.9603 19.12 19.816 18.684C20.5686 18.3005 21.1805 17.6886 21.564 16.936C22 16.0803 22 14.9602 22 12.72V11.52C22 9.27979 22 8.1597 21.564 7.304C21.1805 6.55139 20.5686 5.93947 19.816 5.55597C18.9603 5.12 17.8402 5.12 15.6 5.12H8.4C6.15979 5.12 5.03968 5.12 4.18404 5.55597C3.43139 5.93947 2.81947 6.55139 2.43597 7.304C2 8.1597 2 9.27979 2 11.52V12.72C2 14.9602 2 16.0803 2.43597 16.936C2.81947 17.6886 3.43139 18.3005 4.18404 18.684C5.03968 19.12 6.15979 19.12 8.4 19.12Z" stroke="#b5914f" stroke-width="1.5" stroke-linecap="round" stroke-linejoin="round"/>
</svg>
