<svg width="24" height="24" viewBox="0 0 24 24" fill="none" xmlns="http://www.w3.org/2000/svg">
<path fill-rule="evenodd" clip-rule="evenodd" d="M18.8844 3.84477C18.3954 3.40169 17.65 3.40168 17.161 3.84474C17.1414 3.86251 17.1159 3.8876 17.0275 3.97586L16.7086 4.29414C16.6814 5.39752 17.5962 6.31113 18.7039 6.28328L19.0178 5.96994C19.1066 5.88139 19.1318 5.85589 19.1496 5.83626C19.5947 5.34674 19.5947 4.5991 19.1497 4.10957C19.1318 4.08995 19.1066 4.06445 19.0179 3.97589C18.9294 3.88763 18.904 3.86253 18.8844 3.84477ZM17.427 7.55778C16.5146 7.20764 15.784 6.47903 15.4335 5.56689L9.6433 11.3462C9.15135 11.8372 8.96541 12.026 8.81598 12.2335C8.67606 12.4278 8.5576 12.6367 8.46266 12.8566C8.36127 13.0913 8.2947 13.3478 8.12582 14.022L7.84924 15.1263L8.96382 14.8482C9.63692 14.6802 9.89298 14.614 10.1274 14.5131C10.3469 14.4185 10.5556 14.3006 10.7498 14.1612C10.9572 14.0124 11.1459 13.8272 11.6369 13.3371L17.427 7.55778ZM16.1539 2.73311C17.2145 1.77221 18.8309 1.77223 19.8915 2.73317C19.9417 2.77867 19.9951 2.83192 20.0647 2.90146L20.0776 2.91426L20.0904 2.92712L20.0905 2.92718L20.0907 2.92734C20.1604 2.99698 20.2139 3.05032 20.2595 3.10053C21.2248 4.16221 21.2247 5.78367 20.2595 6.84534C20.2138 6.89558 20.1603 6.94896 20.0905 7.01868L20.0904 7.0187L20.0775 7.03159L12.6966 14.3987L12.6523 14.4429C12.2202 14.8743 11.9426 15.1515 11.6244 15.3799C11.3424 15.5823 11.0393 15.7536 10.7205 15.8908C10.3608 16.0457 9.98013 16.1406 9.38772 16.2884L9.3877 16.2884L9.32699 16.3035L6.9996 16.8843C6.74399 16.9481 6.47366 16.8731 6.28745 16.6867C6.10125 16.5003 6.02648 16.2299 6.09049 15.9744L6.67077 13.6576L6.686 13.5968C6.83456 13.0033 6.93001 12.6221 7.0856 12.2618C7.22348 11.9426 7.39552 11.6392 7.59871 11.357C7.82802 11.0386 8.10623 10.7609 8.53924 10.3288L8.58363 10.2845L15.9678 2.91421L15.9807 2.90136C16.0503 2.83184 16.1037 2.7786 16.1539 2.73311ZM3.01245 21.2401C3.01245 20.8259 3.34824 20.4901 3.76245 20.4901H20.06C20.4742 20.4901 20.81 20.8259 20.81 21.2401C20.81 21.6543 20.4742 21.9901 20.06 21.9901H3.76245C3.34824 21.9901 3.01245 21.6543 3.01245 21.2401Z" fill="#000"/>
</svg>
