<svg width="26" height="28" viewBox="0 0 26 28" fill="none" xmlns="http://www.w3.org/2000/svg">
<path fill-rule="evenodd" clip-rule="evenodd" d="M14.2824 3.64317L14.236 3.61708C12.1811 2.41966 10.5791 1.48702 9.27488 0.877876C7.96673 0.268729 6.81217 -0.0899765 5.67615 0.0195917C4.79476 0.104738 3.94156 0.372308 3.17241 0.804787C2.40325 1.23727 1.73549 1.8249 1.21282 2.52923C0.538883 3.43577 0.263483 4.59928 0.132404 6.01845C2.95945e-08 7.43371 0 9.26767 0 11.6195V16.3805C0 18.7323 2.95945e-08 20.5662 0.132404 21.9815C0.264807 23.4007 0.538883 24.5642 1.21282 25.4707C1.73534 26.1749 2.4029 26.7624 3.17181 27.1949C3.94073 27.6274 4.79367 27.895 5.67482 27.9804C6.81085 28.0899 7.96673 27.7325 9.27621 27.1208C10.5791 26.5129 12.1811 25.5803 14.236 24.3829L14.2824 24.3568L18.281 22.0298L18.3273 22.0037V22.0024C20.32 20.8415 21.8757 19.9362 23.0144 19.1262C24.1597 18.3136 25.015 17.5088 25.4665 16.4966C25.8183 15.7096 26 14.8592 26 13.9993C26 13.1395 25.8183 12.289 25.4665 11.5021C25.0164 10.4925 24.1597 9.68638 23.0144 8.87244C21.8757 8.06373 20.32 7.15718 18.3273 5.99758L18.281 5.97149L14.2824 3.64317Z" fill="#640000"/>
</svg>
